<svg xmlns="http://www.w3.org/2000/svg" viewBox="0 0 1440 900" preserveAspectRatio="xMidYMid slice">
  <defs>
    <linearGradient id="sky" x1="0%" y1="0%" x2="0%" y2="100%">
      <stop offset="0%" stop-color="#FFFDF8"/>
      <stop offset="35%" stop-color="#F4E7D0"/>
      <stop offset="70%" stop-color="#E7D7BD"/>
      <stop offset="100%" stop-color="#C8643C" stop-opacity="0.35"/>
    </linearGradient>
    <linearGradient id="glow" x1="50%" y1="0%" x2="50%" y2="100%">
      <stop offset="0%" stop-color="#D9A441" stop-opacity="0.45"/>
      <stop offset="55%" stop-color="#C8643C" stop-opacity="0.18"/>
      <stop offset="100%" stop-color="#17212B" stop-opacity="0"/>
    </linearGradient>
    <linearGradient id="horizon" x1="0%" y1="0%" x2="100%" y2="0%">
      <stop offset="0%" stop-color="#7CB7D8" stop-opacity="0.12"/>
      <stop offset="50%" stop-color="#D9A441" stop-opacity="0.22"/>
      <stop offset="100%" stop-color="#7A8B5A" stop-opacity="0.14"/>
    </linearGradient>
    <filter id="soft" x="-20%" y="-20%" width="140%" height="140%">
      <feGaussianBlur stdDeviation="18"/>
    </filter>
  </defs>
  <rect width="1440" height="900" fill="url(#sky)"/>
  <ellipse cx="720" cy="220" rx="520" ry="180" fill="url(#glow)" filter="url(#soft)"/>
  <rect x="0" y="620" width="1440" height="8" fill="url(#horizon)" opacity="0.9"/>
  <path fill="#17212B" fill-opacity="0.22" d="M0 680 L0 900 L1440 900 L1440 680 C1280 640 1160 700 1020 660 C900 625 820 690 720 650 C620 610 540 670 420 640 C300 610 180 690 0 680 Z"/>
  <g fill="#17212B" fill-opacity="0.35">
    <path d="M520 520 h40 v160 h-40 z M560 480 h24 v200 h-24 z M584 440 h20 v240 h-20 z M604 400 h16 v280 h-16 z M620 440 h20 v240 h-20 z M640 480 h24 v200 h-24 z M664 520 h40 v160 h-40 z M560 520 h104 v24 h-104 z M560 440 h104 v24 h-104 z"/>
    <ellipse cx="612" cy="760" rx="200" ry="28" fill="#17212B" fill-opacity="0.12"/>
  </g>
  <circle cx="1180" cy="180" r="72" fill="#D9A441" fill-opacity="0.28" filter="url(#soft)"/>
</svg>
